<svg id="visual" viewBox="0 0 900 600" width="900" height="600" xmlns="http://www.w3.org/2000/svg" xmlns:xlink="http://www.w3.org/1999/xlink" version="1.1"><rect x="0" y="0" width="900" height="600" fill="#001220"></rect><defs><linearGradient id="grad1_0" x1="33.3%" y1="100%" x2="100%" y2="0%"><stop offset="20%" stop-color="#fbae3c" stop-opacity="1"></stop><stop offset="80%" stop-color="#fbae3c" stop-opacity="1"></stop></linearGradient></defs><defs><linearGradient id="grad1_1" x1="33.3%" y1="100%" x2="100%" y2="0%"><stop offset="20%" stop-color="#fbae3c" stop-opacity="1"></stop><stop offset="80%" stop-color="#f48350" stop-opacity="1"></stop></linearGradient></defs><defs><linearGradient id="grad1_2" x1="33.3%" y1="100%" x2="100%" y2="0%"><stop offset="20%" stop-color="#d96162" stop-opacity="1"></stop><stop offset="80%" stop-color="#f48350" stop-opacity="1"></stop></linearGradient></defs><defs><linearGradient id="grad1_3" x1="33.3%" y1="100%" x2="100%" y2="0%"><stop offset="20%" stop-color="#d96162" stop-opacity="1"></stop><stop offset="80%" stop-color="#af4b6d" stop-opacity="1"></stop></linearGradient></defs><defs><linearGradient id="grad1_4" x1="33.3%" y1="100%" x2="100%" y2="0%"><stop offset="20%" stop-color="#7c3e6b" stop-opacity="1"></stop><stop offset="80%" stop-color="#af4b6d" stop-opacity="1"></stop></linearGradient></defs><defs><linearGradient id="grad1_5" x1="33.3%" y1="100%" x2="100%" y2="0%"><stop offset="20%" stop-color="#7c3e6b" stop-opacity="1"></stop><stop offset="80%" stop-color="#49335c" stop-opacity="1"></stop></linearGradient></defs><defs><linearGradient id="grad1_6" x1="33.3%" y1="100%" x2="100%" y2="0%"><stop offset="20%" stop-color="#1d2540" stop-opacity="1"></stop><stop offset="80%" stop-color="#49335c" stop-opacity="1"></stop></linearGradient></defs><defs><linearGradient id="grad1_7" x1="33.3%" y1="100%" x2="100%" y2="0%"><stop offset="20%" stop-color="#1d2540" stop-opacity="1"></stop><stop offset="80%" stop-color="#001220" stop-opacity="1"></stop></linearGradient></defs><defs><linearGradient id="grad2_0" x1="0%" y1="100%" x2="66.7%" y2="0%"><stop offset="20%" stop-color="#fbae3c" stop-opacity="1"></stop><stop offset="80%" stop-color="#fbae3c" stop-opacity="1"></stop></linearGradient></defs><defs><linearGradient id="grad2_1" x1="0%" y1="100%" x2="66.7%" y2="0%"><stop offset="20%" stop-color="#f48350" stop-opacity="1"></stop><stop offset="80%" stop-color="#fbae3c" stop-opacity="1"></stop></linearGradient></defs><defs><linearGradient id="grad2_2" x1="0%" y1="100%" x2="66.7%" y2="0%"><stop offset="20%" stop-color="#f48350" stop-opacity="1"></stop><stop offset="80%" stop-color="#d96162" stop-opacity="1"></stop></linearGradient></defs><defs><linearGradient id="grad2_3" x1="0%" y1="100%" x2="66.7%" y2="0%"><stop offset="20%" stop-color="#af4b6d" stop-opacity="1"></stop><stop offset="80%" stop-color="#d96162" stop-opacity="1"></stop></linearGradient></defs><defs><linearGradient id="grad2_4" x1="0%" y1="100%" x2="66.7%" y2="0%"><stop offset="20%" stop-color="#af4b6d" stop-opacity="1"></stop><stop offset="80%" stop-color="#7c3e6b" stop-opacity="1"></stop></linearGradient></defs><defs><linearGradient id="grad2_5" x1="0%" y1="100%" x2="66.7%" y2="0%"><stop offset="20%" stop-color="#49335c" stop-opacity="1"></stop><stop offset="80%" stop-color="#7c3e6b" stop-opacity="1"></stop></linearGradient></defs><defs><linearGradient id="grad2_6" x1="0%" y1="100%" x2="66.7%" y2="0%"><stop offset="20%" stop-color="#49335c" stop-opacity="1"></stop><stop offset="80%" stop-color="#1d2540" stop-opacity="1"></stop></linearGradient></defs><defs><linearGradient id="grad2_7" x1="0%" y1="100%" x2="66.7%" y2="0%"><stop offset="20%" stop-color="#001220" stop-opacity="1"></stop><stop offset="80%" stop-color="#1d2540" stop-opacity="1"></stop></linearGradient></defs><g transform="translate(900, 600)"><path d="M-486.7 0C-466.1 -54.1 -445.4 -108.2 -428.7 -177.6C-411.9 -247 -399.1 -331.7 -344.2 -344.2C-289.2 -356.7 -192.2 -296.9 -127.8 -308.6C-63.4 -320.3 -31.7 -403.5 0 -486.7L0 0Z" fill="#0c1c30"></path><path d="M-425.9 0C-407.8 -47.3 -389.7 -94.6 -375.1 -155.4C-360.4 -216.1 -349.2 -290.2 -301.2 -301.2C-253.1 -312.1 -168.2 -259.8 -111.8 -270C-55.5 -280.3 -27.8 -353.1 0 -425.9L0 0Z" fill="#312c4f"></path><path d="M-365.1 0C-349.6 -40.6 -334.1 -81.1 -321.5 -133.2C-309 -185.2 -299.3 -248.8 -258.1 -258.1C-216.9 -267.5 -144.1 -222.6 -95.9 -231.4C-47.6 -240.2 -23.8 -302.6 0 -365.1L0 0Z" fill="#623965"></path><path d="M-304.2 0C-291.3 -33.8 -278.4 -67.6 -267.9 -111C-257.5 -154.4 -249.4 -207.3 -215.1 -215.1C-180.8 -222.9 -120.1 -185.5 -79.9 -192.9C-39.6 -200.2 -19.8 -252.2 0 -304.2L0 0Z" fill="#96446e"></path><path d="M-243.4 0C-233 -27 -222.7 -54.1 -214.3 -88.8C-206 -123.5 -199.6 -165.9 -172.1 -172.1C-144.6 -178.3 -96.1 -148.4 -63.9 -154.3C-31.7 -160.1 -15.9 -201.8 0 -243.4L0 0Z" fill="#c55469"></path><path d="M-182.5 0C-174.8 -20.3 -167 -40.6 -160.8 -66.6C-154.5 -92.6 -149.7 -124.4 -129.1 -129.1C-108.5 -133.7 -72.1 -111.3 -47.9 -115.7C-23.8 -120.1 -11.9 -151.3 0 -182.5L0 0Z" fill="#e9705a"></path><path d="M-121.7 0C-116.5 -13.5 -111.4 -27 -107.2 -44.4C-103 -61.7 -99.8 -82.9 -86 -86C-72.3 -89.2 -48 -74.2 -32 -77.1C-15.9 -80.1 -7.9 -100.9 0 -121.7L0 0Z" fill="#fa9845"></path><path d="M-60.8 0C-58.3 -6.8 -55.7 -13.5 -53.6 -22.2C-51.5 -30.9 -49.9 -41.5 -43 -43C-36.2 -44.6 -24 -37.1 -16 -38.6C-7.9 -40 -4 -50.4 0 -60.8L0 0Z" fill="#fbae3c"></path></g><g transform="translate(0, 0)"><path d="M486.7 0C447.7 50.2 408.6 100.5 390.8 161.9C373 223.3 376.4 295.9 344.2 344.2C311.9 392.5 243.9 416.4 180.6 436.1C117.3 455.8 58.7 471.3 0 486.7L0 0Z" fill="#0c1c30"></path><path d="M425.9 0C391.7 43.9 357.5 87.9 342 141.6C326.4 195.4 329.4 258.9 301.2 301.2C272.9 343.4 213.5 364.3 158 381.6C102.6 398.8 51.3 412.4 0 425.9L0 0Z" fill="#312c4f"></path><path d="M365.1 0C335.8 37.7 306.5 75.3 293.1 121.4C279.7 167.5 282.3 221.9 258.1 258.1C233.9 294.3 183 312.3 135.5 327.1C88 341.8 44 353.4 0 365.1L0 0Z" fill="#623965"></path><path d="M304.2 0C279.8 31.4 255.4 62.8 244.3 101.2C233.1 139.6 235.3 184.9 215.1 215.1C195 245.3 152.5 260.2 112.9 272.5C73.3 284.9 36.7 294.5 0 304.2L0 0Z" fill="#96446e"></path><path d="M243.4 0C223.8 25.1 204.3 50.2 195.4 80.9C186.5 111.6 188.2 148 172.1 172.1C156 196.2 122 208.2 90.3 218C58.7 227.9 29.3 235.6 0 243.4L0 0Z" fill="#c55469"></path><path d="M182.5 0C167.9 18.8 153.2 37.7 146.6 60.7C139.9 83.7 141.2 111 129.1 129.1C117 147.2 91.5 156.1 67.7 163.5C44 170.9 22 176.7 0 182.5L0 0Z" fill="#e9705a"></path><path d="M121.7 0C111.9 12.6 102.2 25.1 97.7 40.5C93.2 55.8 94.1 74 86 86C78 98.1 61 104.1 45.2 109C29.3 113.9 14.7 117.8 0 121.7L0 0Z" fill="#fa9845"></path><path d="M60.8 0C56 6.3 51.1 12.6 48.9 20.2C46.6 27.9 47.1 37 43 43C39 49.1 30.5 52 22.6 54.5C14.7 57 7.3 58.9 0 60.8L0 0Z" fill="#fbae3c"></path></g></svg>