<?xml version="1.0" encoding="UTF-8"?>
<!DOCTYPE svg PUBLIC "-//W3C//DTD SVG 1.1//EN" "http://www.w3.org/Graphics/SVG/1.1/DTD/svg11.dtd">
<svg xmlns="http://www.w3.org/2000/svg" version="1.1" width="208px" height="180px" style="shape-rendering:geometricPrecision; text-rendering:geometricPrecision; image-rendering:optimizeQuality; fill-rule:evenodd; clip-rule:evenodd" xmlns:xlink="http://www.w3.org/1999/xlink">
<g><path style="opacity:0.31" fill="#2a6ab3" d="M 197.5,-0.5 C 198.167,-0.5 198.833,-0.5 199.5,-0.5C 199.586,0.495904 199.252,1.32924 198.5,2C 195.199,3.64978 192.199,5.64978 189.5,8C 187.482,8.50457 185.482,9.00457 183.5,9.5C 188.167,6.16667 192.833,2.83333 197.5,-0.5 Z"/></g>
<g><path style="opacity:1" fill="#037ef9" d="M 1.5,-0.5 C 4.16667,-0.5 6.83333,-0.5 9.5,-0.5C 12.5296,4.8325 17.1962,7.8325 23.5,8.5C 23.8333,8.5 24.1667,8.5 24.5,8.5C 24.5,11.1667 24.5,13.8333 24.5,16.5C 26.8333,16.5 29.1667,16.5 31.5,16.5C 31.2011,18.604 31.5344,20.604 32.5,22.5C 33.6736,20.766 35.3403,19.766 37.5,19.5C 40.6303,21.0588 43.9637,22.0588 47.5,22.5C 53.1298,24.9814 58.4632,27.9814 63.5,31.5C 63.4142,32.4959 63.7476,33.3292 64.5,34C 69.7767,37.1616 75.4434,38.1616 81.5,37C 83.5,36.3333 84.8333,35 85.5,33C 91.4352,30.6991 97.1018,27.8657 102.5,24.5C 105.906,20.2862 110.239,17.2862 115.5,15.5C 116.909,14.1515 118.243,12.8181 119.5,11.5C 122.146,10.5134 124.812,9.51341 127.5,8.5C 131.756,6.54875 135.423,3.88208 138.5,0.5C 138.5,0.166667 138.5,-0.166667 138.5,-0.5C 140.5,-0.5 142.5,-0.5 144.5,-0.5C 144.312,1.10326 144.812,2.43659 146,3.5C 146.5,36.165 146.667,68.8316 146.5,101.5C 143.989,104.113 140.989,106.28 137.5,108C 136.748,108.671 136.414,109.504 136.5,110.5C 135.127,110.343 133.793,110.51 132.5,111C 127.475,114.762 121.975,117.596 116,119.5C 113.066,116.58 111.566,117.247 111.5,121.5C 109.408,121.561 107.908,122.561 107,124.5C 106.179,127.554 106.345,130.554 107.5,133.5C 110.461,134.183 110.795,135.016 108.5,136C 112.744,136.429 116.744,137.596 120.5,139.5C 121.107,139.376 121.44,139.043 121.5,138.5C 124.869,140.515 128.202,142.515 131.5,144.5C 128.903,144.721 128.903,145.221 131.5,146C 132.833,146.667 134.167,146.667 135.5,146C 144.145,142.224 152.645,138.057 161,133.5C 162.416,132.427 163.75,132.427 165,133.5C 168.046,128.787 172.046,125.12 177,122.5C 177.5,109.838 177.667,97.1711 177.5,84.5C 177.081,81.6755 178.081,79.5088 180.5,78C 186.331,74.9188 191.998,71.5855 197.5,68C 201.149,67.037 204.482,67.537 207.5,69.5C 207.5,91.8333 207.5,114.167 207.5,136.5C 206.448,136.351 205.448,136.517 204.5,137C 195.83,142.339 187.163,147.672 178.5,153C 174.953,153.307 171.62,154.14 168.5,155.5C 167.476,158.9 165.142,161.233 161.5,162.5C 160.575,163.357 159.908,164.357 159.5,165.5C 151.508,168.653 143.841,172.486 136.5,177C 133.854,177.497 131.187,177.664 128.5,177.5C 126.428,175.924 124.428,174.091 122.5,172C 114.7,168.87 107.367,164.87 100.5,160C 99.2068,159.51 97.8734,159.343 96.5,159.5C 92.0547,154.769 86.7213,151.269 80.5,149C 79.3333,147.833 78.1667,146.667 77,145.5C 75.877,139.772 75.377,133.939 75.5,128C 75.6667,122.833 75.8333,117.667 76,112.5C 80.3827,110.391 84.5494,107.891 88.5,105C 90.8127,104.338 93.146,103.838 95.5,103.5C 95.5,102.5 95.5,101.5 95.5,100.5C 100.477,98.2579 105.31,95.5913 110,92.5C 113.489,92.3934 116.489,90.7267 119,87.5C 119.667,75.8333 119.667,64.1667 119,52.5C 118.167,51.6667 117.333,50.8333 116.5,50C 113.167,49.3333 109.833,49.3333 106.5,50C 100.653,54.092 94.3196,57.4253 87.5,60C 83.9808,65.1882 79.1474,68.3549 73,69.5C 61.7916,63.195 50.6249,56.695 39.5,50C 35.4087,48.7728 31.9087,49.6061 29,52.5C 28.977,72.9225 28.3103,93.2559 27,113.5C 24.9361,114.591 22.7695,114.758 20.5,114C 18.2827,112.725 15.9494,111.725 13.5,111C 8.92731,107.558 4.26065,104.392 -0.5,101.5C -0.5,68.1667 -0.5,34.8333 -0.5,1.5C 0.5,1.16667 1.16667,0.5 1.5,-0.5 Z"/></g>
<g><path style="opacity:0.4" fill="#356aaa" d="M 138.5,0.5 C 135.423,3.88208 131.756,6.54875 127.5,8.5C 124.812,9.51341 122.146,10.5134 119.5,11.5C 125.334,7.07911 131.668,3.41244 138.5,0.5 Z"/></g>
<g><path style="opacity:0.839" fill="#3b75ba" d="M 9.5,-0.5 C 9.83333,-0.5 10.1667,-0.5 10.5,-0.5C 14.6591,2.74666 18.9924,5.74666 23.5,8.5C 17.1962,7.8325 12.5296,4.8325 9.5,-0.5 Z"/></g>
<g><path style="opacity:1" fill="#067df7" d="M 199.5,-0.5 C 201.5,-0.5 203.5,-0.5 205.5,-0.5C 205.833,0.5 206.5,1.16667 207.5,1.5C 207.5,10.1667 207.5,18.8333 207.5,27.5C 200.855,32.4928 193.855,36.9928 186.5,41C 184.711,41.5205 183.044,41.1871 181.5,40C 180.35,30.9113 180.183,21.7447 181,12.5C 182.045,11.6266 182.878,10.6266 183.5,9.5C 185.482,9.00457 187.482,8.50457 189.5,8C 192.199,5.64978 195.199,3.64978 198.5,2C 199.252,1.32924 199.586,0.495904 199.5,-0.5 Z"/></g>
<g><path style="opacity:1" fill="#1f75d9" d="M 24.5,8.5 C 32.3691,12.9299 40.0358,17.5966 47.5,22.5C 43.9637,22.0588 40.6303,21.0588 37.5,19.5C 35.3403,19.766 33.6736,20.766 32.5,22.5C 31.5344,20.604 31.2011,18.604 31.5,16.5C 29.1667,16.5 26.8333,16.5 24.5,16.5C 24.5,13.8333 24.5,11.1667 24.5,8.5 Z"/></g>
<g><path style="opacity:0.844" fill="#0456bc" d="M 144.5,-0.5 C 145.167,-0.5 145.833,-0.5 146.5,-0.5C 147.11,0.391047 147.443,1.39105 147.5,2.5C 147.832,35.6709 147.498,68.6709 146.5,101.5C 146.667,68.8316 146.5,36.165 146,3.5C 144.812,2.43659 144.312,1.10326 144.5,-0.5 Z"/></g>
<g><path style="opacity:0.373" fill="#2661ae" d="M 183.5,9.5 C 182.878,10.6266 182.045,11.6266 181,12.5C 180.183,21.7447 180.35,30.9113 181.5,40C 183.044,41.1871 184.711,41.5205 186.5,41C 193.855,36.9928 200.855,32.4928 207.5,27.5C 207.5,28.5 207.5,29.5 207.5,30.5C 200.858,35.1588 193.858,39.3255 186.5,43C 182.654,44.1574 179.821,42.9907 178,39.5C 177.333,31.1667 177.333,22.8333 178,14.5C 179.076,11.921 180.909,10.2543 183.5,9.5 Z"/></g>
<g><path style="opacity:1" fill="#2a72c4" d="M 119.5,11.5 C 118.243,12.8181 116.909,14.1515 115.5,15.5C 110.239,17.2862 105.906,20.2862 102.5,24.5C 97.1018,27.8657 91.4352,30.6991 85.5,33C 84.8333,35 83.5,36.3333 81.5,37C 75.4434,38.1616 69.7767,37.1616 64.5,34C 63.7476,33.3292 63.4142,32.4959 63.5,31.5C 66.913,33.2893 70.413,34.9559 74,36.5C 75.5,36 77,35.5 78.5,35C 91.8955,26.6374 105.562,18.804 119.5,11.5 Z"/></g>
<g><path style="opacity:0.941" fill="#2261b3" d="M 96.5,159.5 C 88.8097,155.569 81.3097,151.236 74,146.5C 72.7546,135.631 72.2546,124.798 72.5,114C 73.0712,112.795 73.7379,111.628 74.5,110.5C 88.7948,102.7 102.961,94.7002 117,86.5C 117.667,75.8333 117.667,65.1667 117,54.5C 115.695,51.6936 113.528,50.8603 110.5,52C 98.3669,59.0645 86.0336,65.5645 73.5,71.5C 61.7719,66.1345 50.4386,59.9679 39.5,53C 36.0747,50.5938 33.2414,51.0938 31,54.5C 30.6667,74.1667 30.3333,93.8333 30,113.5C 28.4178,115.711 26.2511,117.045 23.5,117.5C 14.816,113.831 6.81597,109.164 -0.5,103.5C -0.5,102.833 -0.5,102.167 -0.5,101.5C 4.26065,104.392 8.92731,107.558 13.5,111C 15.9494,111.725 18.2827,112.725 20.5,114C 22.7695,114.758 24.9361,114.591 27,113.5C 28.3103,93.2559 28.977,72.9225 29,52.5C 31.9087,49.6061 35.4087,48.7728 39.5,50C 50.6249,56.695 61.7916,63.195 73,69.5C 79.1474,68.3549 83.9808,65.1882 87.5,60C 94.3196,57.4253 100.653,54.092 106.5,50C 109.833,49.3333 113.167,49.3333 116.5,50C 117.333,50.8333 118.167,51.6667 119,52.5C 119.667,64.1667 119.667,75.8333 119,87.5C 116.489,90.7267 113.489,92.3934 110,92.5C 105.31,95.5913 100.477,98.2579 95.5,100.5C 95.5,101.5 95.5,102.5 95.5,103.5C 93.146,103.838 90.8127,104.338 88.5,105C 84.5494,107.891 80.3827,110.391 76,112.5C 75.8333,117.667 75.6667,122.833 75.5,128C 75.377,133.939 75.877,139.772 77,145.5C 78.1667,146.667 79.3333,147.833 80.5,149C 86.7213,151.269 92.0547,154.769 96.5,159.5 Z"/></g>
<g><path style="opacity:0.194" fill="#245998" d="M 147.5,2.5 C 148.664,35.6641 148.831,68.9975 148,102.5C 147.535,103.931 146.701,105.097 145.5,106C 142.447,107.527 139.447,109.027 136.5,110.5C 136.414,109.504 136.748,108.671 137.5,108C 140.989,106.28 143.989,104.113 146.5,101.5C 147.498,68.6709 147.832,35.6709 147.5,2.5 Z"/></g>
<g><path style="opacity:1" fill="#226dc9" d="M 136.5,110.5 C 127.98,115.683 119.48,121.017 111,126.5C 110.313,128.568 110.48,130.568 111.5,132.5C 114.589,134.925 117.922,136.925 121.5,138.5C 121.44,139.043 121.107,139.376 120.5,139.5C 116.744,137.596 112.744,136.429 108.5,136C 110.795,135.016 110.461,134.183 107.5,133.5C 106.345,130.554 106.179,127.554 107,124.5C 107.908,122.561 109.408,121.561 111.5,121.5C 111.566,117.247 113.066,116.58 116,119.5C 121.975,117.596 127.475,114.762 132.5,111C 133.793,110.51 135.127,110.343 136.5,110.5 Z"/></g>
<g><path style="opacity:1" fill="#2571c4" d="M 177.5,84.5 C 177.667,97.1711 177.5,109.838 177,122.5C 172.046,125.12 168.046,128.787 165,133.5C 163.75,132.427 162.416,132.427 161,133.5C 152.645,138.057 144.145,142.224 135.5,146C 134.167,146.667 132.833,146.667 131.5,146C 128.903,145.221 128.903,144.721 131.5,144.5C 134.425,144.54 137.091,143.707 139.5,142C 151.369,134.634 163.369,127.468 175.5,120.5C 176.148,108.372 176.815,96.3719 177.5,84.5 Z"/></g>
<g><path style="opacity:0.843" fill="#2869b8" d="M 207.5,136.5 C 207.5,136.833 207.5,137.167 207.5,137.5C 191.742,147.26 175.742,156.593 159.5,165.5C 159.908,164.357 160.575,163.357 161.5,162.5C 165.142,161.233 167.476,158.9 168.5,155.5C 171.62,154.14 174.953,153.307 178.5,153C 187.163,147.672 195.83,142.339 204.5,137C 205.448,136.517 206.448,136.351 207.5,136.5 Z"/></g>
<g><path style="opacity:0.78" fill="#285fad" d="M 96.5,159.5 C 97.8734,159.343 99.2068,159.51 100.5,160C 107.367,164.87 114.7,168.87 122.5,172C 124.428,174.091 126.428,175.924 128.5,177.5C 117.502,172.003 106.835,166.003 96.5,159.5 Z"/></g>
<g><path style="opacity:0.408" fill="#2360b1" d="M 159.5,165.5 C 151.833,170.167 144.167,174.833 136.5,179.5C 134.167,179.5 131.833,179.5 129.5,179.5C 129.167,178.833 128.833,178.167 128.5,177.5C 131.187,177.664 133.854,177.497 136.5,177C 143.841,172.486 151.508,168.653 159.5,165.5 Z"/></g>
</svg>
